<svg width="26" height="26" viewBox="0 0 26 26" xmlns="http://www.w3.org/2000/svg"><path d="M6.495 15.434l-1.241 1.241c-.033.033-.033.101.002.136l3.539 3.539c.038.038.1.038.136.002l12.029-12.029c.033-.033.033-.101-.002-.136l-3.539-3.539c-.038-.038-.1-.038-.136-.002l-1.241 1.241 2.192 2.192-1.061 1.061-2.192-2.192-1.768 1.768 1.131 1.131-1.061 1.061-1.131-1.131-1.768 1.768 2.192 2.192-1.061 1.061-2.192-2.192-1.768 1.768 1.131 1.131-1.061 1.061-1.131-1.131zm-2.583 2.721c-.78-.78-.774-2.05-.002-2.823l12.029-12.029c.779-.779 2.044-.777 2.823.002l3.539 3.539c.78.78.774 2.05.002 2.823l-12.029 12.029c-.779.779-2.044.777-2.823-.002l-3.539-3.539z" fill="#000"/></svg>